<svg width="24" height="23" viewBox="0 0 24 23" fill="none" xmlns="http://www.w3.org/2000/svg">
<path d="M12 4.3125C7 4.3125 2.73 7.29292 1 11.5C2.73 15.7071 7 18.6875 12 18.6875C17 18.6875 21.27 15.7071 23 11.5C21.27 7.29292 17 4.3125 12 4.3125ZM12 16.2917C9.24 16.2917 7 14.145 7 11.5C7 8.855 9.24 6.70833 12 6.70833C14.76 6.70833 17 8.855 17 11.5C17 14.145 14.76 16.2917 12 16.2917ZM12 8.625C10.34 8.625 9 9.90917 9 11.5C9 13.0908 10.34 14.375 12 14.375C13.66 14.375 15 13.0908 15 11.5C15 9.90917 13.66 8.625 12 8.625Z" fill="black"/>
</svg>
